<svg width="1496" height="328" viewBox="0 0 1496 328" fill="none" xmlns="http://www.w3.org/2000/svg">
<path d="M520.6 57.8C534.867 57.8 546.733 61.6667 556.2 69.4C565.8 77.1333 571.8 87.6667 574.2 101H544.4C543.2 95.1333 540.467 90.5333 536.2 87.2C531.933 83.7333 526.533 82 520 82C512.533 82 506.267 84.8 501.2 90.4C496.267 95.8667 493.8 103.933 493.8 114.6C493.8 125.267 496.267 133.4 501.2 139C506.267 144.467 512.533 147.2 520 147.2C526.533 147.2 531.933 145.533 536.2 142.2C540.467 138.733 543.2 134.067 544.4 128.2H574.2C571.8 141.533 565.8 152.067 556.2 159.8C546.733 167.533 534.867 171.4 520.6 171.4C509.8 171.4 500.2 169.133 491.8 164.6C483.4 159.933 476.867 153.333 472.2 144.8C467.533 136.267 465.2 126.2 465.2 114.6C465.2 103 467.533 92.9333 472.2 84.4C476.867 75.7333 483.4 69.1333 491.8 64.6C500.2 60.0667 509.8 57.8 520.6 57.8ZM660.238 57.6C673.038 57.6 683.238 61.8 690.838 70.2C698.438 78.6 702.238 90.4 702.238 105.6V170H674.238V108.8C674.238 100 671.971 93.2 667.438 88.4C662.904 83.4667 656.704 81 648.838 81C640.838 81 634.438 83.6 629.638 88.8C624.838 94 622.438 101.467 622.438 111.2V170H594.238V22H622.438V81.4C625.371 73.9333 630.171 68.1333 636.838 64C643.638 59.7333 651.438 57.6 660.238 57.6ZM831.25 110.4C831.25 113.2 830.917 116.4 830.25 120H749.05C749.45 129.867 752.117 137.133 757.05 141.8C761.983 146.467 768.117 148.8 775.45 148.8C781.983 148.8 787.383 147.2 791.65 144C796.05 140.8 798.85 136.467 800.05 131H829.85C828.383 138.733 825.25 145.667 820.45 151.8C815.65 157.933 809.45 162.733 801.85 166.2C794.383 169.667 786.05 171.4 776.85 171.4C766.05 171.4 756.45 169.133 748.05 164.6C739.65 159.933 733.117 153.333 728.45 144.8C723.783 136.267 721.45 126.2 721.45 114.6C721.45 103 723.783 92.9333 728.45 84.4C733.117 75.7333 739.65 69.1333 748.05 64.6C756.45 60.0667 766.05 57.8 776.85 57.8C787.783 57.8 797.317 60.0667 805.45 64.6C813.717 69.1333 820.05 75.4 824.45 83.4C828.983 91.2667 831.25 100.267 831.25 110.4ZM802.85 107.6C803.25 98.5333 800.85 91.6667 795.65 87C790.583 82.3333 784.317 80 776.85 80C769.25 80 762.85 82.3333 757.65 87C752.45 91.6667 749.583 98.5333 749.05 107.6H802.85ZM955.469 110.4C955.469 113.2 955.135 116.4 954.469 120H873.269C873.669 129.867 876.335 137.133 881.269 141.8C886.202 146.467 892.335 148.8 899.669 148.8C906.202 148.8 911.602 147.2 915.869 144C920.269 140.8 923.069 136.467 924.269 131H954.069C952.602 138.733 949.469 145.667 944.669 151.8C939.869 157.933 933.669 162.733 926.069 166.2C918.602 169.667 910.269 171.4 901.069 171.4C890.269 171.4 880.669 169.133 872.269 164.6C863.869 159.933 857.335 153.333 852.669 144.8C848.002 136.267 845.669 126.2 845.669 114.6C845.669 103 848.002 92.9333 852.669 84.4C857.335 75.7333 863.869 69.1333 872.269 64.6C880.669 60.0667 890.269 57.8 901.069 57.8C912.002 57.8 921.535 60.0667 929.669 64.6C937.935 69.1333 944.269 75.4 948.669 83.4C953.202 91.2667 955.469 100.267 955.469 110.4ZM927.069 107.6C927.469 98.5333 925.069 91.6667 919.869 87C914.802 82.3333 908.535 80 901.069 80C893.469 80 887.069 82.3333 881.869 87C876.669 91.6667 873.802 98.5333 873.269 107.6H927.069ZM1003.69 80.4C1007.82 73.3333 1013.29 67.8 1020.09 63.8C1026.89 59.6667 1034.49 57.6 1042.89 57.6V87.8H1034.69C1014.02 87.8 1003.69 97.4 1003.69 116.6V170H975.488V59.2H1003.69V80.4ZM1096.7 57.8C1110.16 57.8 1120.96 61.2 1129.1 68C1137.23 74.8 1142.3 83.8667 1144.3 95.2H1117.9C1116.83 89.8667 1114.43 85.6 1110.7 82.4C1106.96 79.2 1102.1 77.6 1096.1 77.6C1091.3 77.6 1087.56 78.7333 1084.9 81C1082.23 83.2667 1080.9 86.3333 1080.9 90.2C1080.9 93.2667 1081.96 95.7333 1084.1 97.6C1086.23 99.4667 1088.9 100.933 1092.1 102C1095.3 103.067 1099.9 104.333 1105.9 105.8C1114.3 107.667 1121.1 109.667 1126.3 111.8C1131.63 113.8 1136.16 117.067 1139.9 121.6C1143.76 126 1145.7 132 1145.7 139.6C1145.7 149.067 1141.96 156.733 1134.5 162.6C1127.16 168.467 1117.23 171.4 1104.7 171.4C1090.3 171.4 1078.76 168.2 1070.1 161.8C1061.43 155.267 1056.16 146 1054.3 134H1081.3C1081.96 139.467 1084.36 143.8 1088.5 147C1092.63 150.067 1098.03 151.6 1104.7 151.6C1109.5 151.6 1113.16 150.467 1115.7 148.2C1118.23 145.8 1119.5 142.733 1119.5 139C1119.5 135.8 1118.36 133.2 1116.1 131.2C1113.96 129.2 1111.23 127.667 1107.9 126.6C1104.7 125.533 1100.1 124.267 1094.1 122.8C1085.83 120.933 1079.1 119.067 1073.9 117.2C1068.83 115.2 1064.43 112.067 1060.7 107.8C1057.1 103.533 1055.3 97.6667 1055.3 90.2C1055.3 80.6 1058.96 72.8 1066.3 66.8C1073.63 60.8 1083.76 57.8 1096.7 57.8ZM1194.9 22V170H1166.7V22H1194.9ZM1239.41 59.2L1269.61 134.4L1297.61 59.2H1328.61L1260.81 222.8H1229.61L1254.61 166.8L1208.01 59.2H1239.41Z" fill="black"/>
<path d="M496.5 255.2C501.3 255.2 505.567 256.333 509.3 258.6C513.1 260.867 516.067 264.133 518.2 268.4C520.333 272.667 521.4 277.667 521.4 283.4C521.4 289.2 520.333 294.233 518.2 298.5C516.067 302.767 513.1 306.033 509.3 308.3C505.567 310.567 501.3 311.7 496.5 311.7C491.5 311.7 487.233 310.467 483.7 308C480.167 305.533 477.7 302.267 476.3 298.2V311H464.9V237H476.3V268.7C477.7 264.633 480.167 261.367 483.7 258.9C487.233 256.433 491.5 255.2 496.5 255.2ZM493 265.2C489.8 265.2 486.933 265.967 484.4 267.5C481.867 268.967 479.867 271.1 478.4 273.9C476.933 276.633 476.2 279.8 476.2 283.4C476.2 287.067 476.933 290.267 478.4 293C479.867 295.733 481.867 297.867 484.4 299.4C486.933 300.867 489.8 301.6 493 301.6C498.067 301.6 502.133 300 505.2 296.8C508.267 293.533 509.8 289.067 509.8 283.4C509.8 277.8 508.267 273.367 505.2 270.1C502.133 266.833 498.067 265.2 493 265.2ZM583.18 255.9V311H571.68V299C570.28 303.067 567.847 306.233 564.38 308.5C560.914 310.7 556.88 311.8 552.28 311.8C545.88 311.8 540.747 309.733 536.88 305.6C533.014 301.467 531.08 295.567 531.08 287.9V255.9H542.48V286.7C542.48 291.7 543.747 295.567 546.28 298.3C548.814 300.967 552.28 302.3 556.68 302.3C561.214 302.3 564.847 300.833 567.58 297.9C570.314 294.967 571.68 290.7 571.68 285.1V255.9H583.18ZM595.234 239.9C595.234 237.967 595.9 236.367 597.234 235.1C598.567 233.833 600.334 233.2 602.534 233.2C604.734 233.2 606.5 233.833 607.834 235.1C609.234 236.367 609.934 237.967 609.934 239.9C609.934 241.833 609.234 243.4 607.834 244.6C606.5 245.8 604.734 246.4 602.534 246.4C600.334 246.4 598.567 245.8 597.234 244.6C595.9 243.4 595.234 241.833 595.234 239.9ZM608.234 255.9V311H596.834V255.9H608.234ZM633.429 237V311H622.029V237H633.429ZM669.324 255.2C674.324 255.2 678.591 256.433 682.124 258.9C685.658 261.367 688.124 264.633 689.524 268.7V237H701.024V311H689.524V298.2C688.124 302.267 685.658 305.533 682.124 308C678.591 310.467 674.324 311.7 669.324 311.7C664.524 311.7 660.224 310.567 656.424 308.3C652.691 306.033 649.758 302.767 647.624 298.5C645.491 294.233 644.424 289.2 644.424 283.4C644.424 277.667 645.491 272.667 647.624 268.4C649.758 264.133 652.691 260.867 656.424 258.6C660.224 256.333 664.524 255.2 669.324 255.2ZM672.824 265.2C667.758 265.2 663.691 266.833 660.624 270.1C657.624 273.3 656.124 277.733 656.124 283.4C656.124 289.067 657.624 293.533 660.624 296.8C663.691 300 667.758 301.6 672.824 301.6C676.024 301.6 678.891 300.867 681.424 299.4C683.958 297.867 685.958 295.733 687.424 293C688.891 290.267 689.624 287.067 689.624 283.4C689.624 279.8 688.891 276.633 687.424 273.9C685.958 271.1 683.958 268.967 681.424 267.5C678.891 265.967 676.024 265.2 672.824 265.2ZM762.642 255.2C769.776 255.2 775.676 257.1 780.342 260.9C785.009 264.633 787.909 269.733 789.042 276.2H776.942C776.276 272.733 774.642 270.033 772.042 268.1C769.509 266.1 766.309 265.1 762.442 265.1C758.042 265.1 754.376 266.667 751.442 269.8C748.509 272.867 747.042 277.4 747.042 283.4C747.042 289.4 748.509 293.967 751.442 297.1C754.376 300.233 758.042 301.8 762.442 301.8C766.309 301.8 769.509 300.8 772.042 298.8C774.642 296.8 776.276 294.067 776.942 290.6H789.042C787.909 297.067 785.009 302.2 780.342 306C775.676 309.8 769.776 311.7 762.642 311.7C757.309 311.7 752.576 310.567 748.442 308.3C744.376 306.033 741.176 302.767 738.842 298.5C736.509 294.233 735.342 289.2 735.342 283.4C735.342 277.667 736.509 272.667 738.842 268.4C741.176 264.133 744.376 260.867 748.442 258.6C752.576 256.333 757.309 255.2 762.642 255.2ZM830.856 255C837.256 255 842.39 257.067 846.256 261.2C850.123 265.333 852.056 271.233 852.056 278.9V311H840.656V280.1C840.656 275.167 839.39 271.367 836.856 268.7C834.323 265.967 830.856 264.6 826.456 264.6C821.923 264.6 818.29 266.067 815.556 269C812.823 271.867 811.456 276.1 811.456 281.7V311H800.056V237H811.456V268C812.923 263.867 815.39 260.667 818.856 258.4C822.323 256.133 826.323 255 830.856 255ZM916.588 280.8C916.588 282.667 916.455 284.3 916.188 285.7H873.788C873.988 291.367 875.555 295.567 878.488 298.3C881.422 301.033 885.055 302.4 889.388 302.4C893.188 302.4 896.388 301.433 898.988 299.5C901.655 297.567 903.288 295 903.888 291.8H916.088C915.355 295.667 913.822 299.1 911.488 302.1C909.155 305.1 906.122 307.467 902.388 309.2C898.655 310.867 894.488 311.7 889.888 311.7C884.555 311.7 879.822 310.567 875.688 308.3C871.622 306.033 868.422 302.767 866.088 298.5C863.755 294.233 862.588 289.2 862.588 283.4C862.588 277.667 863.755 272.667 866.088 268.4C868.422 264.133 871.622 260.867 875.688 258.6C879.822 256.333 884.555 255.2 889.888 255.2C895.288 255.2 899.988 256.333 903.988 258.6C908.055 260.8 911.155 263.867 913.288 267.8C915.488 271.667 916.588 276 916.588 280.8ZM905.088 280.5C905.222 276.9 904.588 273.9 903.188 271.5C901.855 269.033 899.988 267.233 897.588 266.1C895.255 264.9 892.688 264.3 889.888 264.3C885.422 264.3 881.688 265.667 878.688 268.4C875.688 271.133 874.055 275.167 873.788 280.5H905.088ZM978.795 280.8C978.795 282.667 978.662 284.3 978.395 285.7H935.995C936.195 291.367 937.762 295.567 940.695 298.3C943.629 301.033 947.262 302.4 951.595 302.4C955.395 302.4 958.595 301.433 961.195 299.5C963.862 297.567 965.495 295 966.095 291.8H978.295C977.562 295.667 976.029 299.1 973.695 302.1C971.362 305.1 968.329 307.467 964.595 309.2C960.862 310.867 956.695 311.7 952.095 311.7C946.762 311.7 942.029 310.567 937.895 308.3C933.829 306.033 930.629 302.767 928.295 298.5C925.962 294.233 924.795 289.2 924.795 283.4C924.795 277.667 925.962 272.667 928.295 268.4C930.629 264.133 933.829 260.867 937.895 258.6C942.029 256.333 946.762 255.2 952.095 255.2C957.495 255.2 962.195 256.333 966.195 258.6C970.262 260.8 973.362 263.867 975.495 267.8C977.695 271.667 978.795 276 978.795 280.8ZM967.295 280.5C967.429 276.9 966.795 273.9 965.395 271.5C964.062 269.033 962.195 267.233 959.795 266.1C957.462 264.9 954.895 264.3 952.095 264.3C947.629 264.3 943.895 265.667 940.895 268.4C937.895 271.133 936.262 275.167 935.995 280.5H967.295ZM1001.2 266.7C1003.07 263.1 1005.74 260.267 1009.2 258.2C1012.67 256.067 1016.67 255 1021.2 255V267.4H1017.8C1012.8 267.4 1008.77 268.633 1005.7 271.1C1002.7 273.5 1001.2 277.5 1001.2 283.1V311H989.802V255.9H1001.2V266.7ZM1055.44 244.5C1050.98 244.3 1047.84 245.033 1046.04 246.7C1044.24 248.3 1043.34 251.067 1043.34 255V255.9H1055.44V265.7H1043.34V311H1031.84V265.7H1024.34V255.9H1031.84V254.1C1031.84 247.367 1033.81 242.333 1037.74 239C1041.68 235.6 1047.58 234.1 1055.44 234.5V244.5ZM1115.41 255.9V311H1103.91V299C1102.51 303.067 1100.07 306.233 1096.61 308.5C1093.14 310.7 1089.11 311.8 1084.51 311.8C1078.11 311.8 1072.97 309.733 1069.11 305.6C1065.24 301.467 1063.31 295.567 1063.31 287.9V255.9H1074.71V286.7C1074.71 291.7 1075.97 295.567 1078.51 298.3C1081.04 300.967 1084.51 302.3 1088.91 302.3C1093.44 302.3 1097.07 300.833 1099.81 297.9C1102.54 294.967 1103.91 290.7 1103.91 285.1V255.9H1115.41ZM1140.46 237V311H1129.06V237H1140.46ZM1205.39 301.1V311H1198.39C1192.53 311 1188.06 309.6 1184.99 306.8C1181.99 303.933 1180.49 299.2 1180.49 292.6V265.6H1172.59V255.9H1180.49V242.2H1191.99V255.9H1205.29V265.6H1191.99V292.8C1191.99 295.933 1192.56 298.1 1193.69 299.3C1194.89 300.5 1196.96 301.1 1199.89 301.1H1205.39ZM1267.27 280.8C1267.27 282.667 1267.14 284.3 1266.87 285.7H1224.47C1224.67 291.367 1226.24 295.567 1229.17 298.3C1232.11 301.033 1235.74 302.4 1240.07 302.4C1243.87 302.4 1247.07 301.433 1249.67 299.5C1252.34 297.567 1253.97 295 1254.57 291.8H1266.77C1266.04 295.667 1264.51 299.1 1262.17 302.1C1259.84 305.1 1256.81 307.467 1253.07 309.2C1249.34 310.867 1245.17 311.7 1240.57 311.7C1235.24 311.7 1230.51 310.567 1226.37 308.3C1222.31 306.033 1219.11 302.767 1216.77 298.5C1214.44 294.233 1213.27 289.2 1213.27 283.4C1213.27 277.667 1214.44 272.667 1216.77 268.4C1219.11 264.133 1222.31 260.867 1226.37 258.6C1230.51 256.333 1235.24 255.2 1240.57 255.2C1245.97 255.2 1250.67 256.333 1254.67 258.6C1258.74 260.8 1261.84 263.867 1263.97 267.8C1266.17 271.667 1267.27 276 1267.27 280.8ZM1255.77 280.5C1255.91 276.9 1255.27 273.9 1253.87 271.5C1252.54 269.033 1250.67 267.233 1248.27 266.1C1245.94 264.9 1243.37 264.3 1240.57 264.3C1236.11 264.3 1232.37 265.667 1229.37 268.4C1226.37 271.133 1224.74 275.167 1224.47 280.5H1255.77ZM1300.38 255.2C1305.38 255.2 1309.65 256.433 1313.18 258.9C1316.71 261.367 1319.21 264.633 1320.68 268.7V255.9H1332.08V311H1320.68V298.2C1319.21 302.267 1316.71 305.533 1313.18 308C1309.65 310.467 1305.38 311.7 1300.38 311.7C1295.58 311.7 1291.28 310.567 1287.48 308.3C1283.75 306.033 1280.81 302.767 1278.68 298.5C1276.55 294.233 1275.48 289.2 1275.48 283.4C1275.48 277.667 1276.55 272.667 1278.68 268.4C1280.81 264.133 1283.75 260.867 1287.48 258.6C1291.28 256.333 1295.58 255.2 1300.38 255.2ZM1303.88 265.2C1298.81 265.2 1294.75 266.833 1291.68 270.1C1288.68 273.3 1287.18 277.733 1287.18 283.4C1287.18 289.067 1288.68 293.533 1291.68 296.8C1294.75 300 1298.81 301.6 1303.88 301.6C1307.08 301.6 1309.95 300.867 1312.48 299.4C1315.01 297.867 1317.01 295.733 1318.48 293C1319.95 290.267 1320.68 287.067 1320.68 283.4C1320.68 279.8 1319.95 276.633 1318.48 273.9C1317.01 271.1 1315.01 268.967 1312.48 267.5C1309.95 265.967 1307.08 265.2 1303.88 265.2ZM1414.66 255C1421.19 255 1426.39 257.067 1430.26 261.2C1434.19 265.333 1436.16 271.233 1436.16 278.9V311H1424.76V280.1C1424.76 275.3 1423.56 271.6 1421.16 269C1418.76 266.333 1415.46 265 1411.26 265C1406.79 265 1403.23 266.433 1400.56 269.3C1397.96 272.1 1396.66 276.233 1396.66 281.7V311H1385.26V280.1C1385.26 275.3 1384.06 271.6 1381.66 269C1379.26 266.333 1375.96 265 1371.76 265C1367.29 265 1363.73 266.433 1361.06 269.3C1358.46 272.1 1357.16 276.233 1357.16 281.7V311H1345.76V255.9H1357.16V267.4C1358.56 263.4 1360.89 260.333 1364.16 258.2C1367.43 256.067 1371.26 255 1375.66 255C1380.26 255 1384.23 256.133 1387.56 258.4C1390.96 260.667 1393.43 263.933 1394.96 268.2C1396.56 264.067 1399.13 260.833 1402.66 258.5C1406.19 256.167 1410.19 255 1414.66 255ZM1467.57 255.2C1474.04 255.2 1479.2 256.867 1483.07 260.2C1487 263.467 1489.4 267.867 1490.27 273.4H1479.47C1479 270.4 1477.7 268 1475.57 266.2C1473.5 264.333 1470.74 263.4 1467.27 263.4C1464.4 263.4 1462.17 264.1 1460.57 265.5C1459.04 266.833 1458.27 268.667 1458.27 271C1458.27 272.733 1458.84 274.133 1459.97 275.2C1461.1 276.267 1462.5 277.1 1464.17 277.7C1465.9 278.3 1468.34 278.967 1471.47 279.7C1475.6 280.633 1478.94 281.6 1481.47 282.6C1484.07 283.6 1486.27 285.2 1488.07 287.4C1489.94 289.533 1490.87 292.467 1490.87 296.2C1490.87 300.8 1489.1 304.533 1485.57 307.4C1482.1 310.267 1477.4 311.7 1471.47 311.7C1464.6 311.7 1459.04 310.1 1454.77 306.9C1450.57 303.7 1448.04 299.233 1447.17 293.5H1458.27C1458.6 296.5 1459.94 298.933 1462.27 300.8C1464.6 302.667 1467.67 303.6 1471.47 303.6C1474.2 303.6 1476.34 302.9 1477.87 301.5C1479.47 300.033 1480.27 298.2 1480.27 296C1480.27 294.067 1479.67 292.533 1478.47 291.4C1477.27 290.267 1475.77 289.4 1473.97 288.8C1472.17 288.133 1469.7 287.467 1466.57 286.8C1462.57 285.867 1459.3 284.933 1456.77 284C1454.3 283.067 1452.17 281.567 1450.37 279.5C1448.64 277.367 1447.77 274.5 1447.77 270.9C1447.77 266.233 1449.5 262.467 1452.97 259.6C1456.5 256.667 1461.37 255.2 1467.57 255.2Z" fill="#989898"/>
<path d="M81.0393 81.0161L74.9269 97.6193C45.2169 87.4048 33.5928 89.9989 23.0036 118.776C11.3646 150.385 23.1181 184.245 37.756 198.59L31.2704 216.22C7.29215 198.985 -8.59918 153.382 6.39262 112.664C23.0244 67.487 50.919 70.6219 81.0393 81.0161Z" fill="url(#paint0_linear_217_2)"/>
<path d="M162.334 265.232C159.621 265.779 156.869 266.117 154.104 266.242L172.424 216.485L164.173 194.064L137.707 265.941C135.293 265.739 132.771 265.461 130.162 265.103L160.242 183.387L151.991 160.97L114.752 262.136C112.406 261.552 110.024 260.888 107.623 260.154L148.065 150.294L143.114 136.83C143.094 136.79 143.07 136.759 143.056 136.72C138.711 128.195 142.966 119.23 145.793 113.272C146.206 112.402 146.725 111.302 147.15 110.32C146.892 110.231 146.637 110.133 146.382 110.039L93.0888 254.818C90.7823 253.828 88.5411 252.799 86.3654 251.733L140.076 105.824C139.669 105.327 139.308 104.794 138.998 104.231C137.016 100.499 137.52 96.5681 139.147 91.157C121.165 83.244 107.455 75.1318 102.025 69.2216C100.868 68.1714 99.7915 67.0372 98.8028 65.8281L34.3513 240.925C29.3674 254.472 54.2571 274.549 89.3286 287.439C124.4 300.33 156.507 300.811 161.364 287.615L179.986 237.036L176.346 227.16L162.334 265.232ZM126.095 98.975L72.6612 244.132C70.4309 242.742 68.3285 241.349 66.3376 239.971L119.45 95.687C121.585 96.7855 123.799 97.8814 126.095 98.975ZM99.8242 82.8161C101.738 84.3271 104.09 86.2169 105.907 87.6492L53.5464 229.886C51.5166 228.076 49.6051 226.137 47.8235 224.082L99.8242 82.8161ZM154.986 285.232C153.255 289.931 129.766 293.812 92.0927 279.966C52.5428 265.427 39.1805 247.577 40.7759 243.252L45.6513 230.005C44.0589 234.335 57.424 252.186 96.9665 266.719C134.644 280.569 158.128 276.687 159.86 271.983L154.986 285.232Z" fill="url(#paint1_linear_217_2)"/>
<path d="M296.614 111.438L302.722 128.041C332.435 117.828 344.056 120.425 354.65 149.2C366.284 180.807 354.534 214.67 339.891 229.013L346.381 246.642C370.357 229.407 386.248 183.807 371.259 143.096C354.63 97.9119 326.73 101.045 296.614 111.438Z" fill="url(#paint2_linear_217_2)"/>
<path d="M343.296 271.351L278.013 94C280.472 100.686 254.036 116.555 218.963 129.445C183.89 142.336 153.461 147.371 151 140.685L216.283 318.036C221.145 331.232 253.245 330.752 288.321 317.867C323.397 304.981 348.278 284.895 343.296 271.351ZM277.827 113.242L329.822 254.504C328.044 256.56 326.135 258.499 324.107 260.308L271.748 118.072C273.565 116.643 275.918 114.748 277.827 113.242ZM258.201 126.111L311.311 270.388C309.319 271.772 307.212 273.165 304.983 274.548L251.553 129.392C253.849 128.304 256.066 127.211 258.204 126.111H258.201ZM237.37 135.7L291.276 282.157C289.102 283.221 286.862 284.248 284.555 285.24L230.525 138.459C232.847 137.555 235.13 136.635 237.373 135.7H237.37ZM215.996 143.803L270.02 290.575C267.62 291.307 265.237 291.973 262.894 292.557L208.994 146.127C211.305 145.386 213.64 144.612 215.999 143.803H215.996ZM194.103 150.513L247.481 295.521C244.872 295.884 242.351 296.158 239.935 296.36L186.909 152.314C189.251 151.766 191.65 151.166 194.106 150.513H194.103ZM215.31 295.655L163.866 155.893C166.085 155.67 169.113 155.383 171.448 155.15L223.544 296.671C220.779 296.544 218.027 296.204 215.313 295.655H215.31ZM285.563 310.39C247.89 324.237 224.405 320.354 222.67 315.656L217.795 302.404C219.522 307.111 243.009 310.991 280.688 297.142C320.238 282.608 333.6 264.76 332.005 260.429L336.879 273.676C338.478 278.004 325.11 295.849 285.566 310.39H285.563Z" fill="url(#paint3_linear_217_2)"/>
<path d="M163.986 26.2171C163.986 26.2171 164.243 17.6533 158.914 14.1425C153.585 10.6317 146.828 19.2148 163.986 26.2171Z" fill="url(#paint4_linear_217_2)"/>
<path d="M249.177 43.699C249.177 43.699 249.461 34.0105 255.735 34.2973C262.01 34.584 256.876 41.1346 249.177 43.699Z" fill="url(#paint5_linear_217_2)"/>
<path d="M265.892 42.1164C264.218 45.0701 264.129 50.8095 267.089 52.4839C270.049 54.1583 274.924 51.1334 276.605 48.1753C277.368 46.7595 277.547 45.1011 277.101 43.5555C276.656 42.0099 275.623 40.7002 274.222 39.9071C272.822 39.1139 271.166 38.9006 269.611 39.3128C268.055 39.725 266.723 40.7298 265.899 42.112L265.892 42.1164Z" fill="url(#paint6_linear_217_2)"/>
<path d="M113.397 25.6087C114.364 26.934 116.881 28.1122 118.206 27.139C119.531 26.1658 119.165 23.4246 118.206 22.0979C117.975 21.7829 117.685 21.5164 117.351 21.3136C117.017 21.1107 116.647 20.9756 116.26 20.9159C115.874 20.8561 115.48 20.873 115.101 20.9654C114.721 21.0578 114.364 21.224 114.049 21.4546C113.733 21.6851 113.467 21.9754 113.264 22.3089C113.061 22.6424 112.925 23.0126 112.866 23.3984C112.806 23.7841 112.823 24.1779 112.915 24.5571C113.008 24.9364 113.174 25.2937 113.405 25.6087H113.397Z" fill="url(#paint7_linear_217_2)"/>
<path d="M278.588 61.3698C273.701 73.336 269.141 78.3325 261.154 77.2672C253.166 76.202 251.458 47.8749 237.201 54.057C222.943 60.2392 202.409 52.8269 218.948 43.7074C235.488 34.5879 249.711 16.1232 245.183 3.2448C244.045 -0.00153853 240.051 2.67576 237.201 10.6542C234.35 18.6326 232.635 29.4606 223.511 32.8793C214.388 36.298 208.112 38.0096 201.842 45.988C195.572 53.9664 183.588 35.1585 197.846 22.0528C212.103 8.94706 206.401 -6.10495 194.995 2.55987C189.96 6.32086 186.104 11.4406 183.881 17.3168C181.658 23.1931 181.161 29.5815 182.448 35.7305C184.729 47.129 191.005 55.106 184.158 60.2362C177.311 65.3665 167.046 65.5373 160.785 54.0466C154.523 42.5559 146.239 22.0424 137.969 35.7201C126.726 54.3111 99.2845 35.0515 100.825 54.0466C100.952 55.6866 101.362 57.2922 102.038 58.7921C103.644 65.1213 121.978 76.4828 147.314 87.0389C142.893 99.9931 142.296 102.39 151.357 104.832C161.351 107.526 142.797 122.566 148.939 133.997C151.4 140.683 181.828 135.649 216.901 122.758C238.374 114.864 256.599 105.86 266.943 98.5252C273.497 93.8778 276.905 89.9079 275.951 87.3108C275.906 87.2067 275.851 87.1072 275.787 87.0137C281.306 79.4988 287.807 69.9426 290.25 63.5732C294.804 51.6799 283.476 49.4007 278.588 61.3698ZM249.177 77.2672C245.757 77.0459 244.329 67.3009 237.77 67.9071C231.212 68.5133 229.499 74.2022 221.801 70.7865C214.104 67.3707 208.112 61.3817 200.699 65.0842C193.285 68.7866 188.073 78.7649 179.986 79.0501C171.899 79.3354 154.787 63.7886 154.787 72.0805C154.787 80.3724 154.738 80.4735 148.772 89.3062C149.743 86.1063 149.864 82.709 149.123 79.4483C147.934 73.6346 141.356 56.253 151.354 58.5321C161.351 60.8112 164.198 68.7332 174.182 67.9071C177.864 67.6863 181.441 66.5912 184.614 64.7127C187.788 62.8341 190.467 60.2264 192.43 57.1058C196.032 50.5507 207.544 55.1119 217.241 59.9554C226.938 64.7989 237.204 55.1119 243.193 61.3817C249.182 67.6515 252.597 77.4782 249.177 77.2613V77.2672Z" fill="url(#paint8_linear_217_2)"/>
<defs>
<linearGradient id="paint0_linear_217_2" x1="40.797" y1="74.5273" x2="40.797" y2="216.22" gradientUnits="userSpaceOnUse">
<stop stop-color="#261B1B"/>
<stop offset="1" stop-color="#410000"/>
</linearGradient>
<linearGradient id="paint1_linear_217_2" x1="106.851" y1="65.8281" x2="106.851" y2="297.311" gradientUnits="userSpaceOnUse">
<stop stop-color="#261B1B"/>
<stop offset="1" stop-color="#410000"/>
</linearGradient>
<linearGradient id="paint2_linear_217_2" x1="336.854" y1="104.951" x2="336.854" y2="246.642" gradientUnits="userSpaceOnUse">
<stop stop-color="#261B1B"/>
<stop offset="1" stop-color="#410000"/>
</linearGradient>
<linearGradient id="paint3_linear_217_2" x1="247.466" y1="94" x2="247.466" y2="327.734" gradientUnits="userSpaceOnUse">
<stop stop-color="#261B1B"/>
<stop offset="1" stop-color="#410000"/>
</linearGradient>
<linearGradient id="paint4_linear_217_2" x1="158.505" y1="19.7653" x2="158.483" y2="26.217" gradientUnits="userSpaceOnUse">
<stop stop-color="#FFD600"/>
<stop offset="1" stop-color="#E78A00"/>
</linearGradient>
<linearGradient id="paint5_linear_217_2" x1="253.868" y1="38.989" x2="253.854" y2="43.699" gradientUnits="userSpaceOnUse">
<stop stop-color="#FFD600"/>
<stop offset="1" stop-color="#E78A00"/>
</linearGradient>
<linearGradient id="paint6_linear_217_2" x1="271.044" y1="46.0262" x2="271.022" y2="52.9628" gradientUnits="userSpaceOnUse">
<stop stop-color="#FFD600"/>
<stop offset="1" stop-color="#E78A00"/>
</linearGradient>
<linearGradient id="paint7_linear_217_2" x1="115.954" y1="24.1847" x2="115.944" y2="27.497" gradientUnits="userSpaceOnUse">
<stop stop-color="#FFD600"/>
<stop offset="1" stop-color="#E78A00"/>
</linearGradient>
<linearGradient id="paint8_linear_217_2" x1="196.175" y1="68.3892" x2="196.035" y2="136.954" gradientUnits="userSpaceOnUse">
<stop stop-color="#EB5531"/>
<stop offset="1" stop-color="#E78A00"/>
</linearGradient>
</defs>
</svg>
